<svg height="56" viewBox="0 0 56 56" width="56" xmlns="http://www.w3.org/2000/svg"><path d="m42.1950364 4.70590037c8.0375258 2.35208541 13.8049636 8.78261333 13.8049636 16.34563333 0 5.148034-2.6743633 9.7752285-6.9172278 12.9451068l-.3690028.2631026-.5876938.4063673-.0597334.0393549c-1.4898181 1.0998425-.5682592 3.4145985.8119881 5.2650463l.2555738.3309548c.0865863.1083637.1744227.2146481.2630745.3184794l.267967.3037608.2372862.256328.1781198.2046621c.5349782.6452798.4825194.9221264-.1542426.8556802l-.2085546-.0302075c-.1130387-.020228-.2392172-.0481235-.3785248-.0836017-1.6132847-.4092795-2.891775-.9154892-3.9473297-1.4316238l-.4717567-.2386039c-.1522472-.0795583-.2996251-.1590347-.4425411-.2381124l-.4157694-.2357201-.3914416-.2314268-1.5259572-.9373243-.3013232-.1738356-.2928806-.1571865c-.7719306-.3952757-1.4798758-.5926855-2.3323807-.4300198l-.1684691.0364837c-1.1729362.1741881-2.3785494.2655937-3.6116803.2655937-.6993838 0-1.3906137-.0293836-2.0720413-.0867638 8.8219323-3.4194034 14.9435072-10.9085919 14.9435072-19.597394 0-5.2413122-2.2283334-10.04636555-5.9334862-13.78434981zm-19.5937864-4.70590037c12.4821055 0 22.60125 8.49153689 22.60125 18.9641803 0 10.4745338-10.1191445 18.9660707-22.60125 18.9660707-1.1294954 0-2.2379867-.0695761-3.322192-.2032584l-.6551441-.0897487c-.9045765-.2156421-1.6546458-.0693291-2.4433096.2891585l-.2979352.144086-.3038164.1622221-.3119604.178603-.8303817.5066552-.5441588.3364611-.5879407.3535716-.4200552.2422948-.4451712.2455115c-.0764139.0410891-.1539685.0822391-.2327111.1234134l-.487088.2470453c-1.1715605.5757548-2.59443512 1.1419423-4.39798703 1.5982213-.09855993.0250311-.1911408.0466186-.27773952.0647378l-.24184661.0439274c-.8209445.1227335-.91767366-.1772077-.28606088-.9328363l.19031919-.2174033.10870896-.1172217c.0900503-.0952918.17995218-.1933137.26934667-.2937578l.26630234-.3082913.26110418-.3209778.2537522-.3318173.24424637-.3408096.23258674-.347955c.03767316-.0584853.07477076-.1171914.11124793-.1760798l.21105885-.3552098c.98066262-1.7244437 1.36406771-3.5374627.05584653-4.5005627l-.9534506-.6590022-.1637574-.1179394c-4.66353995-3.4744979-7.60306352-8.5463575-7.60306352-14.1891086 0-10.47264341 10.1172541-18.9641803 22.60125-18.9641803z" transform="translate(0 7)"/></svg>