<svg height="20" viewBox="0 0 20 20" width="20" xmlns="http://www.w3.org/2000/svg"><g style="stroke:#000;stroke-width:2;fill:none;fill-rule:evenodd;stroke-linecap:round;stroke-linejoin:round" transform="translate(-2 -2)"><path d="m8.29997591 16.1586109-3.58997591 2.1413891.61628923-3.6761112c-1.49347684-1.2317676-2.32628923-2.9381919-2.32628923-4.8238888 0-3.7555363 3.30329488-6.8 8.55-6.8 5.2467051 0 8.55 3.0444637 8.55 6.8s-3.3032949 6.8-8.55 6.8c-1.1882947 0-2.27690226-.1561658-3.25002409-.4413891z"/><path d="m19.7000346 12c.8370052.8311353 1.2999654 1.932301 1.2999654 3.1401596 0 1.2999862-.5362767 2.4763832-1.4979782 3.3255551l.39685 2.5342853-2.3117098-1.4762587c-.6266269.196631-1.327619.3042906-2.0928031.3042906-2.7558517 0-4.6790561-1.3964727-5.2943589-3.3163733"/></g></svg>