<svg fill="none" height="15" viewBox="0 0 15 15" width="15" xmlns="http://www.w3.org/2000/svg"><path d="m1.5.5v-.5c-.27614 0-.5.223858-.5.5zm12 0h.5c0-.276142-.2239-.5-.5-.5zm0 14-.2236.4472c.155.0775.3391.0692.4865-.0219s.2371-.252.2371-.4253zm-2-1 .2236-.4472c-.1408-.0704-.3064-.0704-.4472 0zm-2 1-.22361.4472c.14077.0704.30645.0704.44722 0zm-2-1 .22361-.4472c-.14077-.0704-.30645-.0704-.44722 0zm-2 1-.22361.4472c.14077.0704.30645.0704.44722 0zm-4 0h-.5c0 .1733.08973.3342.23713.4253.14741.0911.33148.0994.48648.0219zm2-1 .22361-.4472c-.14077-.0704-.30645-.0704-.44722 0zm-2-12.5h12v-1h-12zm11.5-.5v14h1v-14zm.7236 13.5528-2-1-.4472.8944 2 1zm-2.4472-1-2.00001 1 .44722.8944 1.99999-1zm-1.55279 1-2-1-.44722.8944 2 1zm-2.44722-1-2 1 .44722.8944 2-1zm-5.27639 1.4472v-14h-1v14zm3.72361-.4472-2-1-.44722.8944 2 1zm-2.44722-1-2 1 .44722.8944 2-1zm.72361-8.0528h2v-1h-2zm4 0h3v-1h-3zm-4 3h2v-1h-2zm4 0h3v-1h-3zm0 3h3v-1h-3z" fill="#000"/></svg>